<?xml version="1.0" encoding="utf-8"?>
<!-- Generator: Adobe Illustrator 16.0.3, SVG Export Plug-In . SVG Version: 6.00 Build 0)  -->
<!DOCTYPE svg PUBLIC "-//W3C//DTD SVG 1.1//EN" "http://www.w3.org/Graphics/SVG/1.1/DTD/svg11.dtd">
<svg version="1.1" id="Calque_1" xmlns="http://www.w3.org/2000/svg" xmlns:xlink="http://www.w3.org/1999/xlink" x="0px" y="0px"
	 width="750.89px" height="400.28px" viewBox="0 0 750.89 400.28" enable-background="new 0 0 750.89 400.28" xml:space="preserve">
<path fill="#5C72B7" stroke="#5C72B7" stroke-width="7" stroke-miterlimit="10" d="M149.053,322.385c-2.139,0-4.273-0.85-5.855-2.53
	L39.234,209.226c-5.459-5.812-5.174-14.979,0.634-20.439L148.346,86.847c3.234-3.039,8.317-2.88,11.355,0.352
	c3.038,3.233,2.88,8.317-0.353,11.355L52.041,199.394l102.864,109.457c3.038,3.233,2.88,8.317-0.352,11.356
	C153.002,321.663,151.026,322.385,149.053,322.385z"/>
<path fill="#5C72B7" stroke="#5C72B7" stroke-width="7" stroke-miterlimit="10" d="M603.076,321.959
	c-1.814,0-3.631-0.663-5.059-2.005c-2.975-2.794-3.121-7.471-0.324-10.445c24.174-25.728,95.674-101.809,103.301-109.926
	c-8.219-7.724-86.178-80.983-107.775-101.284c-2.975-2.796-3.119-7.472-0.324-10.446c2.797-2.974,7.473-3.119,10.447-0.324
	c22.809,21.439,108.477,101.943,108.477,101.943c5.553,5.216,5.824,13.977,0.607,19.53c0,0-78.414,83.438-103.963,110.628
	C607.01,321.179,605.045,321.959,603.076,321.959z"/>
<path fill="#5C72B7" stroke="#5C72B7" stroke-width="7" stroke-miterlimit="10" d="M463.914,349.816
	c-1.096,0-2.209-0.225-3.273-0.701l-13.777-6.15c-1.344-0.601-16.148-7.209-22.215-9.912c-6.109-2.727-12.217-5.446-18.324-8.165
	c-6.092-2.718-39.523-17.832-39.86-17.984l-7.001-3.165l2.851-7.136c0.62-1.551,11.928-29.747,16.958-42.294l31.916-79.492
	c4.334-10.783,8.666-21.563,13.006-32.344l3.293-8.184c0.85-2.119,1.701-4.239,2.563-6.362c2.902-7.223,5.816-14.463,8.734-21.707
	c1.656-4.115,6.336-6.11,10.451-4.451c4.115,1.657,6.107,6.337,4.451,10.452c-2.916,7.241-5.828,14.478-8.738,21.715
	c-0.859,2.124-1.705,4.228-2.551,6.336l-3.295,8.19c-4.344,10.788-8.676,21.565-13.008,32.346l-31.912,79.482
	c-3.557,8.873-10.258,25.582-14.09,35.143c10.217,4.617,28.455,12.855,32.771,14.78c6.107,2.719,12.221,5.44,18.328,8.168
	c6.064,2.702,20.883,9.315,22.223,9.913l13.779,6.154c4.051,1.809,5.869,6.56,4.059,10.609
	C469.918,348.044,466.984,349.816,463.914,349.816z"/>
<g>
	<path d="M136.8,257.058v-105.71c0-3.279,2.568-5.902,5.774-5.902h52.765c1.283,0,2.243,0.984,2.243,2.296v8.031
		c0,1.31-0.96,2.293-2.243,2.293h-45.386v38.353h34.638c1.284,0,2.247,0.981,2.247,2.291v7.708c0,1.308-0.963,2.289-2.247,2.289
		h-34.638v48.352c0,1.31-0.962,2.292-2.245,2.292h-8.661C137.763,259.35,136.8,258.367,136.8,257.058z"/>
	<path d="M218.429,253.448V147.741c0-1.312,0.962-2.296,2.245-2.296h8.659c1.283,0,2.245,0.984,2.245,2.296v98.991h40.576
		c1.282,0,2.243,0.981,2.243,2.294v8.031c0,1.31-0.96,2.292-2.243,2.292h-47.951C220.994,259.35,218.429,256.729,218.429,253.448z"
		/>
	<path d="M287.067,221.493v-38.188c0-22.125,17.643-39.99,39.292-39.99c21.652,0,39.292,17.866,39.292,39.99v38.188
		c0,22.121-17.64,39.987-39.292,39.987C304.71,261.48,287.067,243.614,287.067,221.493z M352.5,221.493v-38.188
		c0-14.75-11.708-27.37-26.142-27.37s-26.142,12.62-26.142,27.37v38.188c0,14.746,11.708,27.37,26.142,27.37
		S352.5,236.239,352.5,221.493z"/>
</g>
<g>
	<path d="M453.084,250.991l33.469-101.795c0.467-1.233,1.699-2.003,2.932-2.003h10.178c1.238,0,2.473,0.77,2.938,2.003
		l33.463,101.795c0.617,1.851-0.463,3.396-2.314,3.396h-7.555c-1.232,0-2.469-0.775-2.932-2.008l-8.637-26.839H474.52l-8.635,26.839
		c-0.305,1.232-1.691,2.008-2.926,2.008h-7.561C453.549,254.388,452.465,252.842,453.084,250.991z M511.076,214.285l-16.502-51.053
		l-16.498,51.053H511.076z"/>
	<path d="M572.771,252.38L541,150.587c-0.617-1.852,0.461-3.394,2.309-3.394h7.561c1.232,0,2.621,0.77,2.932,2.003l26.99,89.147
		l26.99-89.147c0.465-1.233,1.697-2.003,2.932-2.003h7.555c1.854,0,2.932,1.542,2.314,3.394L588.811,252.38
		c-0.311,1.232-1.699,2.008-2.932,2.008h-10.176C574.463,254.388,573.234,253.612,572.771,252.38z"/>
</g>
</svg>
