<?xml version="1.0" encoding="utf-8"?>
<!-- Generator: Adobe Illustrator 16.0.3, SVG Export Plug-In . SVG Version: 6.00 Build 0)  -->
<!DOCTYPE svg PUBLIC "-//W3C//DTD SVG 1.1//EN" "http://www.w3.org/Graphics/SVG/1.1/DTD/svg11.dtd">
<svg version="1.1" id="Calque_1" xmlns="http://www.w3.org/2000/svg" xmlns:xlink="http://www.w3.org/1999/xlink" x="0px" y="0px"
	 width="750.89px" height="595.28px" viewBox="0 0 750.89 595.28" enable-background="new 0 0 750.89 595.28" xml:space="preserve">
<path fill="#5C72B7" stroke="#5B71B6" stroke-width="7" stroke-miterlimit="10" d="M627.814,572.498H176.619
	c-7.581,0-13.732-6.15-13.732-13.731s6.151-13.733,13.732-13.733H623.2V86.038c0-7.582,6.153-13.732,13.734-13.732
	s13.73,6.15,13.73,13.732v463.609C650.665,562.242,640.411,572.498,627.814,572.498z"/>
<path fill="#5C72B7" stroke="#5B71B6" stroke-width="7" stroke-miterlimit="10" d="M118.518,521.008
	c-7.581,0-13.732-6.151-13.732-13.733V49.778c0-12.596,10.25-22.852,22.851-22.852h448.128c7.581,0,13.733,6.151,13.733,13.732
	c0,7.581-6.152,13.732-13.733,13.732H132.249v452.883C132.249,514.856,126.099,521.008,118.518,521.008z"/>
<path fill="#5C72B7" stroke="#5B71B6" stroke-width="6.973" stroke-miterlimit="10" d="M176.156,521.115
	c-3.381,0-6.774-1.222-9.429-3.695c-5.532-5.147-5.797-13.748-0.584-19.217l400.38-417.514c5.244-5.438,13.951-5.662,19.461-0.504
	c5.506,5.169,5.732,13.779,0.498,19.218L186.181,516.84C183.476,519.68,179.819,521.115,176.156,521.115z"/>
</svg>
